<svg xmlns="http://www.w3.org/2000/svg" viewBox="0 0 32 32" width="32" height="32">
  <defs>
    <linearGradient id="bg" x1="0" y1="0" x2="32" y2="32" gradientUnits="userSpaceOnUse">
      <stop offset="0%" stop-color="#6b7df5"/>
      <stop offset="100%" stop-color="#3143e3"/>
    </linearGradient>
    <clipPath id="frame">
      <rect x="5" y="6" width="22" height="17" rx="3"/>
    </clipPath>
  </defs>
  <rect width="32" height="32" rx="7" fill="url(#bg)"/>
  <rect x="5" y="6" width="22" height="17" rx="3" fill="rgba(255,255,255,0.16)"/>
  <g clip-path="url(#frame)">
    <circle cx="11" cy="11.5" r="1.9" fill="#ffffff"/>
    <path d="M3 24 L12 14 L17 18 L21.5 13 L29 21 L29 25 L3 25 Z" fill="#ffffff"/>
  </g>
  <rect x="5" y="6" width="22" height="17" rx="3" fill="none" stroke="#ffffff" stroke-width="1.9" stroke-linejoin="round"/>
  <g transform="translate(19.5 18.2) rotate(-40)">
    <rect x="0" y="-1.8" width="9.5" height="3.6" rx="0.9" fill="#ffd166" stroke="#3143e3" stroke-width="0.6"/>
    <path d="M9.5 -1.8 L12 0 L9.5 1.8 Z" fill="#ffffff" stroke="#3143e3" stroke-width="0.6" stroke-linejoin="round"/>
    <rect x="0" y="-1.8" width="1.8" height="3.6" rx="0.6" fill="#3143e3"/>
  </g>
</svg>
